<svg xmlns="http://www.w3.org/2000/svg" width="100" height="150" viewBox="0 0 100 150"><rect width="100%" height="100%" fill="#1E1E1E"/><path fill="#FFFFFF" d="M27.615 68.675h1.66v10.12h-.97q-.22 0-.37-.07-.15-.08-.29-.25l-5.29-6.75q.05.46.05.85v6.22h-1.66v-10.12h.98q.12 0 .21.01t.15.04q.07.03.13.09.07.06.14.16l5.31 6.78-.04-.49q-.01-.24-.01-.44zm6.82 2.83q.8 0 1.45.25.66.26 1.12.74.47.48.72 1.16.25.69.25 1.54t-.25 1.54q-.25.68-.72 1.16-.46.49-1.12.75-.65.25-1.45.25-.81 0-1.46-.25-.66-.26-1.13-.75-.46-.48-.72-1.16-.25-.69-.25-1.54t.25-1.54q.26-.68.72-1.16.47-.48 1.13-.74.65-.25 1.46-.25m0 6.06q.89 0 1.32-.6.44-.6.44-1.76t-.44-1.77q-.43-.61-1.32-.61-.91 0-1.35.61t-.44 1.77q0 1.15.44 1.76.44.6 1.35.6m10.43-8.89v10.12h-1.89v-10.12zm3.72 10.12h-1.73v-7.18h1.05q.34 0 .44.31l.12.54q.19-.21.39-.39.21-.18.44-.3.24-.13.51-.2t.59-.07q.68 0 1.11.36.44.37.66.98.17-.36.42-.61.25-.26.55-.42t.64-.24q.34-.07.69-.07.59 0 1.05.18t.78.53q.31.35.48.85.16.51.16 1.16v4.57h-1.73v-4.57q0-.69-.3-1.03-.3-.35-.88-.35-.26 0-.49.09t-.4.26q-.17.18-.27.43-.1.26-.1.6v4.57h-1.73v-4.57q0-.72-.3-1.05-.29-.33-.85-.33-.37 0-.7.19-.32.18-.6.5zm13.79-1.85v-1.22q-.75.04-1.26.13-.52.1-.82.25-.31.14-.44.34-.14.19-.14.42 0 .46.27.66.27.19.71.19.53 0 .92-.19.38-.19.76-.58m-3.66-3.78-.31-.55q1.24-1.14 2.99-1.14.63 0 1.12.21.5.21.84.58.35.36.52.87.18.51.18 1.12v4.54h-.78q-.25 0-.38-.07-.13-.08-.21-.3l-.15-.52q-.28.25-.54.43-.25.19-.53.31-.28.13-.6.2-.32.06-.71.06-.45 0-.84-.12-.38-.12-.66-.37-.28-.24-.44-.61-.15-.36-.15-.84 0-.28.09-.55t.3-.51q.21-.25.53-.46.33-.22.81-.38t1.12-.26 1.46-.13v-.42q0-.72-.31-1.06-.31-.35-.89-.35-.42 0-.7.1-.27.1-.48.22t-.39.22q-.17.1-.38.1-.18 0-.31-.1-.12-.09-.2-.22m9.59 1.86q.32 0 .56-.08.24-.09.4-.24.15-.16.23-.38.09-.21.09-.47 0-.53-.32-.85-.32-.31-.96-.31t-.95.31q-.32.32-.32.85 0 .25.08.47.08.21.24.37.15.16.39.25.25.08.56.08m1.95 4.09q0-.21-.12-.34-.13-.13-.34-.21-.22-.07-.51-.11-.29-.03-.62-.05-.32-.02-.67-.03t-.68-.06q-.28.16-.46.38t-.18.51q0 .18.09.35.1.16.31.28.2.12.53.19.33.06.81.06t.83-.07.58-.2q.22-.13.33-.31.1-.18.1-.39m-.34-7.26h2.07v.65q0 .3-.37.37l-.65.12q.15.38.15.82 0 .53-.22.96-.21.43-.59.73-.37.3-.89.47-.51.16-1.11.16-.21 0-.4-.02-.2-.02-.39-.06-.34.21-.34.46 0 .22.2.32t.53.14.75.05.86.05q.44.03.86.12t.75.28.53.51q.2.33.2.84 0 .47-.23.92-.24.45-.68.8-.45.35-1.09.56-.65.22-1.48.22-.81 0-1.41-.16t-1-.42-.6-.61q-.19-.34-.19-.71 0-.5.3-.84t.84-.55q-.29-.14-.46-.39-.17-.24-.17-.64 0-.16.06-.33.06-.18.18-.34.11-.17.29-.32.17-.15.41-.27-.54-.3-.86-.79-.31-.49-.31-1.14 0-.54.22-.97.21-.43.59-.73.38-.31.9-.47.53-.16 1.14-.16.46 0 .87.1.41.09.74.27m4.52 2.52h3.27q0-.33-.1-.63-.09-.3-.28-.52-.19-.23-.48-.36-.29-.12-.68-.12-.75 0-1.18.42-.43.43-.55 1.21m4.41 1.05h-4.44q.04.55.19.95.16.4.41.67.25.26.6.39t.77.13.72-.1.53-.22l.4-.21q.17-.1.33-.1.22 0 .33.16l.49.63q-.28.34-.64.56-.36.23-.75.37-.39.13-.79.19-.4.05-.78.05-.75 0-1.39-.24-.65-.25-1.12-.74-.48-.48-.75-1.2t-.27-1.67q0-.73.23-1.38.24-.65.69-1.12.44-.48 1.08-.76t1.45-.28q.68 0 1.25.21.57.22.99.64.41.41.64 1.02.24.6.24 1.38 0 .39-.08.53-.09.14-.33.14"/></svg>